<svg width="302" height="195" viewBox="0 0 302 195" fill="none" xmlns="http://www.w3.org/2000/svg">
<g clip-path="url(#clip0_119_229)">
<path d="M0 164.047V159.647H23.3276V152.356H4.35262L0 148.036V140.665L4.35262 136.301H27.6802V140.665H4.38758V148.001H23.3625L27.6715 152.321V159.691L23.3188 164.056H0V164.047Z" fill="white"/>
<path d="M32.6184 164.047V136.292H55.946L60.2986 140.657V147.992L55.946 152.356H37.006V164.047H32.6184ZM37.006 140.657V147.992H55.946V140.657H37.006Z" fill="white"/>
<path d="M78.085 164.047V136.292H101.413L105.765 140.657V147.992L101.413 152.356H82.4725V164.047H78.085ZM82.4725 140.657V147.992H101.413V140.657H82.4725Z" fill="white"/>
<path d="M134.031 136.301L138.384 140.665V159.691L134.031 164.056H115.056L110.703 159.656V140.665L115.056 136.301H134.031ZM115.091 159.647H134.031V140.657H115.091V159.647Z" fill="white"/>
<path d="M143.322 140.657V136.292H171.002V140.657H159.343V164.047H154.99V140.657H143.331H143.322Z" fill="white"/>
<path d="M199.268 136.301L203.62 140.665V159.691L199.268 164.056H180.293L175.94 159.656V140.665L180.293 136.301H199.268ZM180.328 159.647H199.268V140.657H180.328V159.647Z" fill="white"/>
<path d="M212.946 159.647H236.23V164.047H208.55V140.657L212.937 136.292V159.639L212.946 159.647Z" fill="white"/>
<path d="M264.505 136.301L268.857 140.665V159.691L264.505 164.056H245.53L241.177 159.656V140.665L245.53 136.301H264.505ZM245.565 159.647H264.505V140.657H245.565V159.647Z" fill="white"/>
<path d="M278.183 136.301V147.992H288.191L297.123 139.035V136.301H301.476V140.858L292.263 150.095L301.476 159.332V164.047H297.123V161.155L288.304 152.356H278.183V164.047H273.795V136.292H278.183V136.301Z" fill="white"/>
<path d="M0.943941 186.955H0V192.809L3.60096 188.874V192.397H4.53616V186.543L0.943941 190.478V186.955Z" fill="white"/>
<path d="M10.3222 189.085H7.31552V186.955H6.37158V192.397H7.31552V189.97H10.3222V192.397H11.2661V186.955H10.3222V189.085Z" fill="white"/>
<path d="M12.2014 187.84H13.3289V192.397H14.2728V187.84H15.3916V186.955H12.2014V187.84Z" fill="white"/>
<path d="M19.7179 187.183C19.3333 186.955 18.8876 186.841 18.3719 186.841C17.9087 186.841 17.4892 186.937 17.1133 187.122C16.7375 187.314 16.4316 187.577 16.1956 187.91C15.9596 188.252 15.8023 188.646 15.7236 189.093C15.7062 189.19 15.6974 189.286 15.6887 189.374C15.6887 189.47 15.6799 189.567 15.6799 189.672C15.6799 190.215 15.7936 190.706 16.0121 191.135C16.2393 191.565 16.5452 191.898 16.9298 192.143C17.3231 192.388 17.7601 192.511 18.2408 192.511C18.7215 192.511 19.1061 192.45 19.4207 192.336C19.7354 192.222 20.0063 192.064 20.2248 191.854C20.4433 191.644 20.6444 191.407 20.8279 191.126L20.0588 190.644C19.9364 190.846 19.7966 191.013 19.6305 191.162C19.4644 191.311 19.2809 191.424 19.0711 191.503C18.8614 191.582 18.6254 191.626 18.3544 191.626C18.0048 191.626 17.6902 191.547 17.4367 191.398C17.1832 191.249 16.9735 191.03 16.8336 190.732C16.72 190.504 16.6676 190.215 16.6414 189.908H20.8978C20.8978 189.865 20.9066 189.812 20.9066 189.768V189.628C20.9066 189.05 20.8017 188.559 20.5919 188.147C20.3822 187.735 20.0763 187.411 19.6917 187.183H19.7179ZM16.6851 189.111C16.7113 188.865 16.7725 188.638 16.8861 188.445C17.0434 188.199 17.2444 188.007 17.5066 187.875C17.7688 187.744 18.0573 187.674 18.3632 187.674C18.6691 187.674 18.94 187.735 19.1585 187.858C19.377 187.98 19.5431 188.147 19.6655 188.366C19.7878 188.585 19.8665 188.83 19.8927 189.12H16.6763L16.6851 189.111Z" fill="white"/>
<path d="M22.2876 192.397H23.2315V187.84H25.1806V186.955H22.2876V192.397Z" fill="white"/>
<path d="M30.206 187.183C29.804 186.955 29.3495 186.841 28.8513 186.841C28.4056 186.841 28.0122 186.955 27.6626 187.183C27.3917 187.367 27.1732 187.63 26.9984 187.937V186.955H26.0544V195H26.9984V191.416C27.1732 191.722 27.3917 191.994 27.6626 192.178C28.0035 192.406 28.3968 192.52 28.8513 192.52C29.3495 192.52 29.7952 192.406 30.206 192.178C30.6081 191.95 30.9315 191.626 31.1762 191.197C31.4209 190.776 31.5433 190.268 31.5433 189.68C31.5433 189.093 31.4209 188.585 31.1762 188.164C30.9315 187.744 30.6081 187.419 30.206 187.192V187.183ZM30.3371 190.741C30.1711 191.03 29.9438 191.258 29.6641 191.407C29.3845 191.556 29.0786 191.635 28.7377 191.635C28.458 191.635 28.1871 191.556 27.9248 191.407C27.6539 191.258 27.4354 191.039 27.2606 190.741C27.0858 190.452 26.9984 190.092 26.9984 189.68C26.9984 189.269 27.0858 188.909 27.2606 188.62C27.4354 188.331 27.6539 188.112 27.9248 187.954C28.1958 187.805 28.4667 187.726 28.7377 187.726C29.0786 187.726 29.3845 187.805 29.6641 187.954C29.9438 188.103 30.1711 188.322 30.3371 188.62C30.5032 188.909 30.5906 189.269 30.5906 189.68C30.5906 190.092 30.5032 190.452 30.3371 190.741Z" fill="white"/>
<path d="M33.8419 186.955H32.9067V192.809L36.499 188.874V192.397H37.4429V186.543L33.8419 190.478V186.955Z" fill="white"/>
<path d="M43.3601 187.183C42.958 186.955 42.5036 186.841 42.0054 186.841C41.5596 186.841 41.1663 186.955 40.8167 187.183C40.5457 187.367 40.3272 187.63 40.1524 187.937V186.955H39.2085V195H40.1524V191.416C40.3272 191.722 40.5457 191.994 40.8167 192.178C41.1576 192.406 41.5509 192.52 42.0054 192.52C42.5036 192.52 42.9493 192.406 43.3601 192.178C43.7621 191.95 44.0855 191.626 44.3303 191.197C44.575 190.776 44.6973 190.268 44.6973 189.68C44.6973 189.093 44.575 188.585 44.3303 188.164C44.0855 187.744 43.7621 187.419 43.3601 187.192V187.183ZM43.4912 190.741C43.3251 191.03 43.0979 191.258 42.8182 191.407C42.5385 191.556 42.2326 191.635 41.8917 191.635C41.612 191.635 41.3411 191.556 41.0789 191.407C40.8167 191.258 40.5894 191.039 40.4146 190.741C40.2398 190.452 40.1524 190.092 40.1524 189.68C40.1524 189.269 40.2398 188.909 40.4146 188.62C40.5894 188.331 40.808 188.112 41.0789 187.954C41.3498 187.805 41.6208 187.726 41.8917 187.726C42.2326 187.726 42.5385 187.805 42.8182 187.954C43.0979 188.103 43.3251 188.322 43.4912 188.62C43.6573 188.909 43.7447 189.269 43.7447 189.68C43.7447 190.092 43.6573 190.452 43.4912 190.741Z" fill="white"/>
<path d="M49.7578 187.209C49.3383 186.964 48.8576 186.841 48.3245 186.841C47.7913 186.841 47.3193 186.964 46.8998 187.209C46.4715 187.455 46.1394 187.788 45.8947 188.217C45.6499 188.646 45.5276 189.128 45.5276 189.68C45.5276 190.233 45.6499 190.715 45.8947 191.144C46.1394 191.573 46.4803 191.906 46.8998 192.152C47.3281 192.397 47.8 192.52 48.3245 192.52C48.8489 192.52 49.3383 192.397 49.7578 192.152C50.1774 191.906 50.5095 191.573 50.763 191.144C51.0077 190.715 51.1388 190.224 51.1388 189.68C51.1388 189.137 51.0164 188.638 50.763 188.217C50.5182 187.788 50.1774 187.455 49.7578 187.209ZM49.9326 190.688C49.7753 190.978 49.5481 191.214 49.2684 191.381C48.9887 191.547 48.6741 191.635 48.3157 191.635C47.9574 191.635 47.6427 191.547 47.363 191.381C47.0833 191.214 46.8648 190.978 46.6988 190.688C46.5415 190.399 46.454 190.066 46.454 189.68C46.454 189.295 46.5327 188.962 46.6988 188.673C46.8561 188.375 47.0833 188.147 47.363 187.98C47.6427 187.814 47.9574 187.735 48.3157 187.735C48.6741 187.735 48.9887 187.814 49.2684 187.98C49.5481 188.147 49.7666 188.375 49.9326 188.673C50.09 188.971 50.1774 189.304 50.1774 189.68C50.1774 190.057 50.0987 190.39 49.9326 190.688Z" fill="white"/>
<path d="M55.5701 189.68C55.5089 189.663 55.439 189.654 55.3778 189.645C55.6488 189.549 55.876 189.4 56.0421 189.198C56.2169 188.997 56.3043 188.743 56.3043 188.436C56.3043 188.077 56.2169 187.796 56.0421 187.577C55.8673 187.358 55.64 187.2 55.3603 187.104C55.0807 187.008 54.7747 186.955 54.4339 186.955H52.4324V192.397H54.7922C55.4128 192.397 55.8585 192.257 56.1295 191.968C56.4004 191.679 56.5403 191.328 56.5403 190.925C56.5403 190.566 56.4529 190.294 56.2781 190.101C56.1033 189.908 55.8673 189.768 55.5701 189.689V189.68ZM54.4339 187.788C54.7136 187.788 54.9408 187.849 55.1069 187.98C55.2729 188.112 55.3516 188.278 55.3516 188.497C55.3516 188.603 55.3341 188.699 55.2904 188.787C55.2467 188.874 55.1855 188.962 55.1069 189.032C55.0282 189.102 54.9321 189.155 54.8184 189.19C54.7048 189.225 54.5737 189.242 54.4339 189.242H53.3763V187.788H54.4339ZM55.3341 191.346C55.1681 191.495 54.9058 191.573 54.5475 191.573H53.3676V190.057H54.5475C54.731 190.057 54.8796 190.075 55.0107 190.11C55.1418 190.145 55.2467 190.198 55.3254 190.268C55.404 190.338 55.474 190.417 55.5177 190.504C55.5614 190.592 55.5788 190.688 55.5788 190.802C55.5788 191.013 55.4914 191.197 55.3254 191.346H55.3341Z" fill="white"/>
<path d="M60.9017 187.034C60.587 186.902 60.2287 186.841 59.8092 186.841C59.3197 186.841 58.9089 186.92 58.5593 187.069C58.2097 187.218 57.9388 187.367 57.7377 187.516L58.201 188.234C58.2884 188.173 58.4107 188.094 58.5593 188.007C58.7166 187.919 58.8914 187.84 59.11 187.77C59.3197 187.7 59.5557 187.674 59.8179 187.674C60.1151 187.674 60.386 187.744 60.6133 187.884C60.8405 188.024 60.9629 188.226 60.9629 188.506V189.418C60.823 189.321 60.657 189.242 60.4472 189.163C60.2025 189.076 59.9053 189.023 59.5557 189.023C59.0837 189.023 58.6729 189.093 58.3321 189.242C57.9825 189.391 57.7203 189.593 57.528 189.865C57.3357 190.136 57.2483 190.46 57.2483 190.846C57.2483 191.232 57.3357 191.53 57.5018 191.775C57.6678 192.02 57.8951 192.213 58.1835 192.336C58.4632 192.459 58.7778 192.529 59.1187 192.529C59.4945 192.529 59.8354 192.467 60.1413 192.336C60.4472 192.204 60.6919 192.02 60.8755 191.766C60.9104 191.714 60.9367 191.652 60.9629 191.591V192.406H61.9068V188.506C61.9068 188.147 61.8194 187.849 61.6446 187.604C61.4698 187.358 61.2251 187.174 60.9104 187.043L60.9017 187.034ZM60.7444 191.083C60.6045 191.284 60.4122 191.442 60.1763 191.53C59.9403 191.617 59.6518 191.67 59.3372 191.67C59.1274 191.67 58.9352 191.635 58.7603 191.573C58.5855 191.503 58.4457 191.407 58.3496 191.275C58.2447 191.144 58.1922 190.986 58.1922 190.793C58.1922 190.574 58.2447 190.382 58.3496 190.224C58.4544 190.066 58.603 189.943 58.8128 189.856C59.0226 189.768 59.2848 189.724 59.5994 189.724C59.949 189.724 60.2549 189.768 60.5346 189.865C60.6744 189.908 60.8143 189.97 60.9629 190.049V190.259C60.9629 190.601 60.893 190.872 60.7531 191.074L60.7444 191.083Z" fill="white"/>
<path d="M67.4481 189.085H64.4415V186.955H63.4976V192.397H64.4415V189.97H67.4481V192.397H68.3921V186.955H67.4481V189.085Z" fill="white"/>
<path d="M74.108 189.085H71.1014V186.955H70.1575V192.397H71.1014V189.97H74.108V192.397H75.052V186.955H74.108V189.085Z" fill="white"/>
<path d="M82.6561 186.955H81.7122V192.397H82.6561V186.955Z" fill="white"/>
<path d="M80.4711 189.426C80.0865 189.155 79.6233 189.014 79.0639 189.014H77.7704V186.955H76.8264V192.397H79.0639C79.4397 192.397 79.7806 192.336 80.0778 192.222C80.3749 192.099 80.6109 191.915 80.7857 191.67C80.9605 191.416 81.0479 191.1 81.0479 190.715C81.0479 190.127 80.8556 189.707 80.4798 189.435L80.4711 189.426ZM79.9816 191.179C79.903 191.31 79.7893 191.407 79.632 191.477C79.4747 191.547 79.2911 191.573 79.0639 191.573H77.7704V189.847H79.0639C79.4135 189.847 79.667 189.926 79.8418 190.075C80.0166 190.224 80.104 190.434 80.104 190.715C80.104 190.899 80.0603 191.056 79.9816 191.179Z" fill="white"/>
<path d="M87.9877 187.183C87.6031 186.955 87.1574 186.841 86.6417 186.841C86.1785 186.841 85.7589 186.937 85.3831 187.122C85.0073 187.314 84.7014 187.577 84.4654 187.91C84.2294 188.252 84.0721 188.646 83.9934 189.093C83.9759 189.19 83.9672 189.286 83.9584 189.374C83.9584 189.47 83.9497 189.567 83.9497 189.672C83.9497 190.215 84.0633 190.706 84.2818 191.135C84.5091 191.565 84.815 191.898 85.1996 192.143C85.5929 192.388 86.0299 192.511 86.5106 192.511C86.9913 192.511 87.3759 192.45 87.6905 192.336C88.0052 192.222 88.2761 192.064 88.4946 191.854C88.7131 191.644 88.9141 191.407 89.0977 191.126L88.3285 190.644C88.2062 190.846 88.0663 191.013 87.9003 191.162C87.7342 191.311 87.5507 191.424 87.3409 191.503C87.1311 191.582 86.8952 191.626 86.6242 191.626C86.2746 191.626 85.9599 191.547 85.7065 191.398C85.453 191.249 85.2433 191.03 85.1034 190.732C84.9898 190.504 84.9373 190.215 84.9111 189.908H89.1676C89.1676 189.865 89.1763 189.812 89.1763 189.768V189.628C89.1763 189.05 89.0715 188.559 88.8617 188.147C88.6519 187.735 88.346 187.411 87.9615 187.183H87.9877ZM84.9548 189.111C84.981 188.865 85.0422 188.638 85.1559 188.445C85.3132 188.199 85.5142 188.007 85.7764 187.875C86.0386 187.744 86.327 187.674 86.6329 187.674C86.9389 187.674 87.2098 187.735 87.4283 187.858C87.6468 187.98 87.8129 188.147 87.9352 188.366C88.0576 188.585 88.1363 188.83 88.1625 189.12H84.9461L84.9548 189.111Z" fill="white"/>
<path d="M98.1262 187.183C97.7242 186.955 97.2697 186.841 96.7715 186.841C96.3257 186.841 95.9324 186.955 95.5828 187.183C95.3119 187.367 95.0934 187.63 94.9186 187.937V186.955H93.9746V195H94.9186V191.416C95.0934 191.722 95.3119 191.994 95.5828 192.178C95.9237 192.406 96.317 192.52 96.7715 192.52C97.2697 192.52 97.7154 192.406 98.1262 192.178C98.5283 191.95 98.8516 191.626 99.0964 191.197C99.3411 190.776 99.4635 190.268 99.4635 189.68C99.4635 189.093 99.3411 188.585 99.0964 188.164C98.8516 187.744 98.5283 187.419 98.1262 187.192V187.183ZM98.2573 190.741C98.0912 191.03 97.864 191.258 97.5843 191.407C97.3046 191.556 96.9987 191.635 96.6578 191.635C96.3782 191.635 96.1072 191.556 95.845 191.407C95.5828 191.258 95.3556 191.039 95.1808 190.741C95.006 190.452 94.9186 190.092 94.9186 189.68C94.9186 189.269 95.006 188.909 95.1808 188.62C95.3556 188.331 95.5741 188.112 95.845 187.954C96.116 187.805 96.3869 187.726 96.6578 187.726C96.9987 187.726 97.3046 187.805 97.5843 187.954C97.864 188.103 98.0912 188.322 98.2573 188.62C98.4234 188.909 98.5108 189.269 98.5108 189.68C98.5108 190.092 98.4234 190.452 98.2573 190.741Z" fill="white"/>
<path d="M104.323 187.183C103.938 186.955 103.493 186.841 102.977 186.841C102.514 186.841 102.094 186.937 101.718 187.122C101.342 187.314 101.037 187.577 100.801 187.91C100.565 188.252 100.407 188.646 100.329 189.093C100.311 189.19 100.302 189.286 100.294 189.374C100.294 189.47 100.285 189.567 100.285 189.672C100.285 190.215 100.399 190.706 100.617 191.135C100.844 191.565 101.15 191.898 101.535 192.143C101.928 192.388 102.365 192.511 102.846 192.511C103.327 192.511 103.711 192.45 104.026 192.336C104.34 192.222 104.611 192.064 104.83 191.854C105.048 191.644 105.249 191.407 105.433 191.126L104.664 190.644C104.541 190.846 104.402 191.013 104.235 191.162C104.069 191.311 103.886 191.424 103.676 191.503C103.466 191.582 103.23 191.626 102.959 191.626C102.61 191.626 102.295 191.547 102.042 191.398C101.788 191.249 101.578 191.03 101.439 190.732C101.325 190.504 101.273 190.215 101.246 189.908H105.503C105.503 189.865 105.512 189.812 105.512 189.768V189.628C105.512 189.05 105.407 188.559 105.197 188.147C104.987 187.735 104.681 187.411 104.297 187.183H104.323ZM101.29 189.111C101.316 188.865 101.377 188.638 101.491 188.445C101.648 188.199 101.849 188.007 102.112 187.875C102.374 187.744 102.662 187.674 102.968 187.674C103.274 187.674 103.545 187.735 103.764 187.858C103.982 187.98 104.148 188.147 104.27 188.366C104.393 188.585 104.471 188.83 104.498 189.12H101.281L101.29 189.111Z" fill="white"/>
<path d="M113.317 191.512H111.018V186.955H110.074V191.512H107.775V186.955H106.832V192.397H114.261V186.955H113.317V191.512Z" fill="white"/>
<path d="M119.592 187.183C119.208 186.955 118.762 186.841 118.246 186.841C117.783 186.841 117.363 186.937 116.988 187.122C116.612 187.314 116.306 187.577 116.07 187.91C115.834 188.252 115.677 188.646 115.598 189.093C115.58 189.19 115.572 189.286 115.563 189.374C115.563 189.47 115.554 189.567 115.554 189.672C115.554 190.215 115.668 190.706 115.886 191.135C116.114 191.565 116.419 191.898 116.804 192.143C117.197 192.388 117.634 192.511 118.115 192.511C118.596 192.511 118.98 192.45 119.295 192.336C119.61 192.222 119.881 192.064 120.099 191.854C120.318 191.644 120.519 191.407 120.702 191.126L119.933 190.644C119.811 190.846 119.671 191.013 119.505 191.162C119.339 191.311 119.155 191.424 118.945 191.503C118.736 191.582 118.5 191.626 118.229 191.626C117.879 191.626 117.564 191.547 117.311 191.398C117.058 191.249 116.848 191.03 116.708 190.732C116.594 190.504 116.542 190.215 116.516 189.908H120.772C120.772 189.865 120.781 189.812 120.781 189.768V189.628C120.781 189.05 120.676 188.559 120.466 188.147C120.256 187.735 119.951 187.411 119.566 187.183H119.592ZM116.559 189.111C116.586 188.865 116.647 188.638 116.76 188.445C116.918 188.199 117.119 188.007 117.381 187.875C117.643 187.744 117.932 187.674 118.237 187.674C118.543 187.674 118.814 187.735 119.033 187.858C119.251 187.98 119.417 188.147 119.54 188.366C119.662 188.585 119.741 188.83 119.767 189.12H116.551L116.559 189.111Z" fill="white"/>
<path d="M126.06 189.085H123.053V186.955H122.109V192.397H123.053V189.97H126.06V192.397H127.004V186.955H126.06V189.085Z" fill="white"/>
<path d="M129.775 186.955H128.831V192.809L132.423 188.874V192.397H133.367V186.543L129.775 190.478V186.955Z" fill="white"/>
<path d="M138.471 186.955H137.177C136.81 186.955 136.469 187.008 136.172 187.121C135.866 187.235 135.63 187.402 135.456 187.639C135.281 187.875 135.193 188.191 135.193 188.585C135.193 188.979 135.281 189.286 135.456 189.523C135.63 189.759 135.866 189.943 136.172 190.049C136.286 190.092 136.408 190.119 136.531 190.145L134.94 192.397H135.98L137.518 190.224H138.48V192.397H139.424V186.955H138.48H138.471ZM137.177 189.391C136.95 189.391 136.758 189.365 136.609 189.304C136.452 189.242 136.338 189.155 136.26 189.041C136.181 188.927 136.146 188.769 136.146 188.594C136.146 188.418 136.181 188.261 136.26 188.147C136.338 188.033 136.452 187.936 136.609 187.884C136.767 187.823 136.95 187.796 137.177 187.796H138.471V189.409H137.177V189.391Z" fill="white"/>
<path d="M147.377 186.543L144.982 191.512H144.021V193.466H145.026V192.406H149.798V193.466H150.742V191.512H149.781L147.386 186.543H147.377ZM147.377 188.585L148.723 191.503H146.031L147.377 188.585Z" fill="white"/>
<path d="M152.245 190.504C152.245 190.89 152.158 191.162 151.992 191.311C151.826 191.46 151.625 191.538 151.38 191.538V192.406C151.791 192.406 152.123 192.336 152.394 192.196C152.665 192.055 152.857 191.845 152.988 191.573C153.119 191.293 153.181 190.942 153.181 190.513V187.849H155.951V192.406H156.895V186.964H152.237V190.513L152.245 190.504Z" fill="white"/>
<path d="M162.017 186.955H160.724C160.356 186.955 160.016 187.008 159.718 187.121C159.413 187.235 159.177 187.402 159.002 187.639C158.827 187.875 158.74 188.191 158.74 188.585C158.74 188.979 158.827 189.286 159.002 189.523C159.177 189.759 159.413 189.943 159.718 190.049C159.832 190.092 159.954 190.119 160.077 190.145L158.486 192.397H159.526L161.064 190.224H162.026V192.397H162.97V186.955H162.026H162.017ZM160.724 189.391C160.496 189.391 160.304 189.365 160.155 189.304C159.998 189.242 159.885 189.155 159.806 189.041C159.727 188.927 159.692 188.769 159.692 188.594C159.692 188.418 159.727 188.261 159.806 188.147C159.885 188.033 159.998 187.936 160.155 187.884C160.313 187.823 160.496 187.796 160.724 187.796H162.017V189.409H160.724V189.391Z" fill="white"/>
<path d="M170.241 186.841C169.717 186.841 169.236 186.964 168.817 187.209C168.389 187.455 168.056 187.788 167.812 188.217C167.567 188.646 167.445 189.128 167.445 189.68C167.445 190.233 167.567 190.715 167.812 191.144C168.056 191.573 168.397 191.906 168.817 192.152C169.245 192.397 169.717 192.52 170.241 192.52C170.609 192.52 170.967 192.459 171.316 192.336C171.666 192.213 171.937 192.047 172.121 191.819V190.636C172.042 190.811 171.911 190.969 171.719 191.126C171.526 191.284 171.308 191.407 171.054 191.495C170.801 191.582 170.521 191.626 170.233 191.626C169.874 191.626 169.56 191.538 169.28 191.372C169 191.205 168.782 190.969 168.616 190.68C168.45 190.39 168.371 190.057 168.371 189.672C168.371 189.286 168.45 188.953 168.616 188.664C168.773 188.366 169 188.138 169.28 187.972C169.56 187.805 169.874 187.726 170.233 187.726C170.521 187.726 170.792 187.77 171.054 187.866C171.308 187.954 171.535 188.077 171.719 188.226C171.911 188.375 172.042 188.541 172.121 188.725V187.542C171.928 187.323 171.666 187.148 171.316 187.025C170.967 186.902 170.609 186.841 170.241 186.841Z" fill="white"/>
<path d="M174.612 186.955H173.668V192.809L177.26 188.874V192.397H178.204V186.543L174.612 190.487V186.955Z" fill="white"/>
<path d="M182.312 186.841C181.787 186.841 181.307 186.964 180.887 187.209C180.459 187.455 180.127 187.788 179.882 188.217C179.637 188.646 179.515 189.128 179.515 189.68C179.515 190.233 179.637 190.715 179.882 191.144C180.127 191.573 180.468 191.906 180.887 192.152C181.315 192.397 181.787 192.52 182.312 192.52C182.679 192.52 183.037 192.459 183.387 192.336C183.736 192.213 184.007 192.047 184.191 191.819V190.636C184.112 190.811 183.981 190.969 183.789 191.126C183.597 191.284 183.378 191.407 183.125 191.495C182.871 191.582 182.591 191.626 182.303 191.626C181.945 191.626 181.63 191.538 181.35 191.372C181.071 191.205 180.852 190.969 180.686 190.68C180.52 190.39 180.441 190.057 180.441 189.672C180.441 189.286 180.52 188.953 180.686 188.664C180.843 188.366 181.071 188.138 181.35 187.972C181.63 187.805 181.945 187.726 182.303 187.726C182.591 187.726 182.862 187.77 183.125 187.866C183.378 187.954 183.605 188.077 183.789 188.226C183.981 188.375 184.112 188.541 184.191 188.725V187.542C183.999 187.323 183.736 187.148 183.387 187.025C183.037 186.902 182.679 186.841 182.312 186.841Z" fill="white"/>
<path d="M184.846 187.84H185.965V192.397H186.909V187.84H188.028V186.955H184.846V187.84Z" fill="white"/>
<path d="M192.354 187.183C191.97 186.955 191.524 186.841 191.008 186.841C190.545 186.841 190.125 186.937 189.75 187.122C189.374 187.314 189.068 187.577 188.832 187.91C188.596 188.252 188.439 188.646 188.36 189.093C188.342 189.19 188.334 189.286 188.325 189.374C188.325 189.47 188.316 189.567 188.316 189.672C188.316 190.215 188.43 190.706 188.648 191.135C188.876 191.565 189.181 191.898 189.566 192.143C189.959 192.388 190.396 192.511 190.877 192.511C191.358 192.511 191.742 192.45 192.057 192.336C192.372 192.222 192.643 192.064 192.861 191.854C193.08 191.644 193.281 191.407 193.464 191.126L192.695 190.644C192.581 190.846 192.433 191.013 192.267 191.162C192.101 191.311 191.917 191.424 191.707 191.503C191.498 191.582 191.262 191.626 190.991 191.626C190.632 191.626 190.326 191.547 190.073 191.398C189.811 191.249 189.61 191.03 189.47 190.732C189.356 190.504 189.304 190.215 189.278 189.908H193.534C193.534 189.865 193.543 189.812 193.543 189.768V189.628C193.543 189.05 193.438 188.559 193.228 188.147C193.018 187.735 192.721 187.411 192.328 187.183H192.354ZM189.33 189.111C189.356 188.865 189.417 188.638 189.531 188.445C189.688 188.199 189.889 188.007 190.152 187.875C190.414 187.744 190.702 187.674 191.017 187.674C191.332 187.674 191.594 187.735 191.812 187.858C192.031 187.98 192.197 188.147 192.319 188.366C192.442 188.585 192.52 188.83 192.546 189.12H189.33V189.111Z" fill="white"/>
<path d="M197.546 190.855L195.457 186.543L194.041 192.397H195.107L195.754 189.242L197.546 192.765L199.373 189.234L200.019 192.397H201.086L199.67 186.543L197.546 190.855Z" fill="white"/>
<path d="M209.52 189.085H206.505V186.955H205.569V192.397H206.505V189.97H209.52V192.397H210.455V186.955H209.52V189.085Z" fill="white"/>
<path d="M215.358 187.034C215.044 186.902 214.685 186.841 214.266 186.841C213.776 186.841 213.366 186.92 213.016 187.069C212.666 187.218 212.396 187.367 212.195 187.516L212.658 188.234C212.745 188.173 212.868 188.094 213.016 188.007C213.173 187.919 213.348 187.84 213.567 187.77C213.777 187.7 214.012 187.674 214.275 187.674C214.572 187.674 214.843 187.744 215.07 187.884C215.306 188.024 215.42 188.226 215.42 188.506V189.418C215.28 189.321 215.114 189.242 214.904 189.163C214.659 189.076 214.362 189.023 214.012 189.023C213.541 189.023 213.13 189.093 212.789 189.242C212.448 189.391 212.177 189.593 211.985 189.865C211.792 190.136 211.705 190.46 211.705 190.846C211.705 191.232 211.792 191.53 211.959 191.775C212.125 192.02 212.352 192.213 212.64 192.336C212.92 192.459 213.235 192.529 213.575 192.529C213.951 192.529 214.292 192.467 214.598 192.336C214.904 192.204 215.149 192.02 215.332 191.766C215.376 191.714 215.393 191.652 215.42 191.591V192.406H216.364V188.506C216.364 188.147 216.276 187.849 216.101 187.604C215.927 187.358 215.682 187.174 215.367 187.043L215.358 187.034ZM215.201 191.083C215.061 191.284 214.869 191.442 214.633 191.53C214.388 191.626 214.109 191.67 213.794 191.67C213.584 191.67 213.392 191.635 213.217 191.573C213.042 191.512 212.902 191.407 212.806 191.275C212.71 191.144 212.649 190.986 212.649 190.793C212.649 190.574 212.701 190.382 212.806 190.224C212.911 190.066 213.06 189.943 213.27 189.856C213.479 189.768 213.742 189.724 214.056 189.724C214.406 189.724 214.712 189.768 214.991 189.865C215.131 189.908 215.271 189.97 215.42 190.049V190.259C215.42 190.601 215.35 190.872 215.21 191.074L215.201 191.083Z" fill="white"/>
<path d="M217.124 187.84H218.243V192.397H219.187V187.84H220.305V186.955H217.124V187.84Z" fill="white"/>
<path d="M224.527 186.955H223.233C222.866 186.955 222.525 187.008 222.228 187.121C221.922 187.235 221.686 187.402 221.512 187.639C221.337 187.875 221.249 188.191 221.249 188.585C221.249 188.979 221.337 189.286 221.512 189.523C221.686 189.759 221.922 189.943 222.228 190.049C222.342 190.092 222.464 190.119 222.587 190.145L220.996 192.397H222.036L223.574 190.224H224.536V192.397H225.48V186.955H224.536H224.527ZM223.233 189.391C223.006 189.391 222.814 189.365 222.665 189.304C222.508 189.242 222.394 189.155 222.316 189.041C222.237 188.927 222.202 188.769 222.202 188.594C222.202 188.418 222.237 188.261 222.316 188.147C222.394 188.033 222.508 187.936 222.665 187.884C222.823 187.823 223.006 187.796 223.233 187.796H224.527V189.409H223.233V189.391Z" fill="white"/>
<path d="M233.783 186.955H232.603L230.488 188.979V186.955H229.596V188.979L227.472 186.955H226.301L228.775 189.321L226.065 192.397H227.245L229.596 189.496V192.397H230.488V189.496L232.839 192.397H234.019L231.309 189.321L233.783 186.955Z" fill="white"/>
<path d="M238.861 189.085H235.845V186.955H234.91V192.397H235.845V189.97H238.861V192.397H239.796V186.955H238.861V189.085Z" fill="white"/>
<path d="M247.409 186.955H246.465V192.397H247.409V186.955Z" fill="white"/>
<path d="M245.215 189.426C244.83 189.155 244.367 189.014 243.808 189.014H242.514V186.955H241.57V192.397H243.808C244.184 192.397 244.524 192.336 244.822 192.222C245.119 192.099 245.355 191.915 245.53 191.67C245.704 191.416 245.792 191.1 245.792 190.715C245.792 190.127 245.6 189.707 245.224 189.435L245.215 189.426ZM244.726 191.179C244.647 191.31 244.533 191.407 244.376 191.477C244.219 191.547 244.035 191.573 243.808 191.573H242.514V189.847H243.808C244.157 189.847 244.411 189.926 244.586 190.075C244.76 190.224 244.848 190.434 244.848 190.715C244.848 190.899 244.813 191.056 244.734 191.179H244.726Z" fill="white"/>
<path d="M253.125 186.955H252.067L250.765 188.848L249.471 186.955H248.405L250.258 189.593L248.292 192.397H249.349L250.765 190.338L252.181 192.397H253.247L251.272 189.593L253.125 186.955Z" fill="white"/>
<path d="M257.67 192.397H258.614V187.84H261.148V192.397H262.092V186.955H257.67V192.397Z" fill="white"/>
<path d="M267.625 187.209C267.205 186.964 266.725 186.841 266.191 186.841C265.658 186.841 265.186 186.964 264.767 187.209C264.338 187.455 264.006 187.788 263.762 188.217C263.517 188.646 263.395 189.128 263.395 189.68C263.395 190.233 263.517 190.715 263.762 191.144C264.006 191.573 264.347 191.906 264.767 192.152C265.195 192.397 265.667 192.52 266.191 192.52C266.716 192.52 267.205 192.397 267.625 192.152C268.044 191.906 268.376 191.573 268.63 191.144C268.875 190.715 268.997 190.224 268.997 189.68C268.997 189.137 268.875 188.638 268.63 188.217C268.385 187.788 268.044 187.455 267.625 187.209ZM267.8 190.688C267.634 190.978 267.415 191.214 267.135 191.381C266.856 191.547 266.541 191.635 266.183 191.635C265.824 191.635 265.51 191.547 265.23 191.381C264.95 191.214 264.732 190.978 264.566 190.688C264.408 190.399 264.321 190.066 264.321 189.68C264.321 189.295 264.4 188.962 264.566 188.673C264.723 188.375 264.95 188.147 265.23 187.98C265.51 187.814 265.824 187.735 266.183 187.735C266.541 187.735 266.856 187.814 267.135 187.98C267.415 188.147 267.634 188.375 267.8 188.673C267.957 188.971 268.044 189.304 268.044 189.68C268.044 190.057 267.966 190.39 267.8 190.688Z" fill="white"/>
<path d="M269.469 187.84H270.588V192.397H271.532V187.84H272.659V186.955H269.469V187.84Z" fill="white"/>
<path d="M277.187 187.209C276.767 186.964 276.286 186.841 275.753 186.841C275.22 186.841 274.748 186.964 274.329 187.209C273.9 187.455 273.568 187.788 273.323 188.217C273.079 188.646 272.956 189.128 272.956 189.68C272.956 190.233 273.079 190.715 273.323 191.144C273.568 191.573 273.909 191.906 274.329 192.152C274.757 192.397 275.229 192.52 275.753 192.52C276.278 192.52 276.767 192.397 277.187 192.152C277.606 191.906 277.938 191.573 278.192 191.144C278.436 190.715 278.559 190.224 278.559 189.68C278.559 189.137 278.436 188.638 278.192 188.217C277.947 187.788 277.606 187.455 277.187 187.209ZM277.361 190.688C277.195 190.978 276.977 191.214 276.697 191.381C276.417 191.547 276.103 191.635 275.744 191.635C275.386 191.635 275.071 191.547 274.792 191.381C274.512 191.214 274.294 190.978 274.128 190.688C273.97 190.399 273.883 190.066 273.883 189.68C273.883 189.295 273.961 188.962 274.128 188.673C274.285 188.375 274.512 188.147 274.792 187.98C275.071 187.814 275.386 187.735 275.744 187.735C276.103 187.735 276.417 187.814 276.697 187.98C276.977 188.147 277.195 188.375 277.361 188.673C277.519 188.971 277.606 189.304 277.606 189.68C277.606 190.057 277.527 190.39 277.361 190.688Z" fill="white"/>
<path d="M279.957 190.504C279.957 190.89 279.87 191.162 279.704 191.311C279.538 191.46 279.337 191.538 279.092 191.538V192.406C279.503 192.406 279.835 192.336 280.106 192.196C280.377 192.055 280.569 191.845 280.7 191.573C280.831 191.293 280.893 190.942 280.893 190.513V187.849H283.663V192.406H284.607V186.964H279.949V190.513L279.957 190.504Z" fill="white"/>
<path d="M290.507 186.955H289.336L287.325 188.865V186.955H286.381V192.397H287.325V189.637L289.572 192.397H290.743L288.156 189.207L290.507 186.955Z" fill="white"/>
<path d="M295.218 187.209C294.798 186.964 294.317 186.841 293.784 186.841C293.251 186.841 292.779 186.964 292.36 187.209C291.931 187.455 291.599 187.788 291.354 188.217C291.11 188.646 290.987 189.128 290.987 189.68C290.987 190.233 291.11 190.715 291.354 191.144C291.599 191.573 291.94 191.906 292.36 192.152C292.788 192.397 293.26 192.52 293.784 192.52C294.309 192.52 294.798 192.397 295.218 192.152C295.637 191.906 295.969 191.573 296.223 191.144C296.467 190.715 296.59 190.224 296.59 189.68C296.59 189.137 296.467 188.638 296.223 188.217C295.978 187.788 295.637 187.455 295.218 187.209ZM295.392 190.688C295.226 190.978 295.008 191.214 294.728 191.381C294.448 191.547 294.134 191.635 293.775 191.635C293.417 191.635 293.102 191.547 292.823 191.381C292.543 191.214 292.325 190.978 292.158 190.688C292.001 190.399 291.914 190.066 291.914 189.68C291.914 189.295 291.992 188.962 292.158 188.673C292.316 188.375 292.543 188.147 292.823 187.98C293.102 187.814 293.417 187.735 293.775 187.735C294.134 187.735 294.448 187.814 294.728 187.98C295.008 188.147 295.226 188.375 295.392 188.673C295.55 188.971 295.637 189.304 295.637 189.68C295.637 190.057 295.558 190.39 295.392 190.688Z" fill="white"/>
<path d="M301.738 190.092C301.563 189.9 301.327 189.759 301.03 189.68C300.969 189.663 300.899 189.654 300.838 189.645C301.109 189.549 301.336 189.4 301.502 189.198C301.677 188.997 301.764 188.743 301.764 188.436C301.764 188.077 301.677 187.796 301.502 187.577C301.327 187.358 301.1 187.2 300.82 187.104C300.54 187.008 300.234 186.955 299.894 186.955H297.892V192.397H300.252C300.873 192.397 301.318 192.257 301.589 191.968C301.86 191.679 302 191.328 302 190.925C302 190.566 301.913 190.294 301.738 190.101V190.092ZM299.894 187.788C300.173 187.788 300.401 187.849 300.567 187.98C300.733 188.112 300.811 188.278 300.811 188.497C300.811 188.603 300.785 188.699 300.75 188.787C300.706 188.874 300.645 188.962 300.567 189.032C300.488 189.102 300.392 189.155 300.278 189.19C300.165 189.225 300.033 189.242 299.894 189.242H298.836V187.788H299.894ZM300.794 191.346C300.628 191.495 300.366 191.573 300.007 191.573H298.827V190.057H300.007C300.191 190.057 300.348 190.075 300.47 190.11C300.593 190.145 300.706 190.198 300.785 190.268C300.864 190.338 300.934 190.417 300.977 190.504C301.021 190.592 301.039 190.688 301.039 190.802C301.039 191.013 300.951 191.197 300.785 191.346H300.794Z" fill="white"/>
<path d="M301.58 173.503H0V177.885H301.58V173.503Z" fill="#FFDF40"/>
<path d="M149.457 41.0139H142.859L118.788 65.1578L118.867 65.2367L118.806 65.298L161.021 107.618L164.316 104.314L125.326 65.2104L149.457 41.0139Z" fill="#FFDF40"/>
<path d="M134.617 41.0139H128.018L104.113 64.9913L104.192 65.0701L104.131 65.1315L153.766 114.9L157.07 111.596L110.651 65.0526L134.617 41.0139Z" fill="#FFDF40"/>
<path d="M120.431 41.0139H113.832L90.094 64.8248L90.1727 64.9036L90.1115 64.965L146.844 121.841L150.139 118.537L96.6317 64.8861L120.431 41.0139Z" fill="#FFDF40"/>
<path d="M152.123 80.8271H158.722L182.793 56.692L182.714 56.6132L182.775 56.5518L140.56 14.2234L137.265 17.536L176.255 56.6307L152.123 80.8271Z" fill="#FFDF40"/>
<path d="M166.973 80.8272H173.563L197.476 56.8586L197.397 56.7797L197.45 56.7184L147.814 6.94958L144.519 10.2535L190.938 56.7972L166.973 80.8272Z" fill="#FFDF40"/>
<path d="M181.149 80.8272H187.748L211.495 57.0251L211.408 56.9462L211.469 56.8849L154.745 0L151.441 3.3039L204.958 56.9637L181.149 80.8272Z" fill="#FFDF40"/>
</g>
<defs>
<clipPath id="clip0_119_229">
<rect width="302" height="195" fill="white"/>
</clipPath>
</defs>
</svg>
