<svg width="326" height="30" viewBox="0 0 326 30" fill="none" xmlns="http://www.w3.org/2000/svg">
<g clip-path="url(#clip0_4_230)">
<path d="M0 30V25.2475H25.2247V17.3627H4.70551L0 12.6823V4.71647L4.70551 0H29.9303V4.71647H4.74143V12.6463H25.2607L29.9213 17.3177V25.2925L25.2158 30.009H0V30Z" fill="#1C1C1C"/>
<path d="M35.2733 30V0H60.4981L65.2036 4.71647V12.6463L60.4981 17.3627H40.0237V30.009H35.2823L35.2733 30ZM40.0147 4.71647V12.6463H60.4891V4.71647H40.0147Z" fill="#1C1C1C"/>
<path d="M84.4387 30V0H109.663L114.369 4.71647V12.6463L109.663 17.3627H89.1891V30.009H84.4477L84.4387 30ZM89.1801 4.71647V12.6463H109.654V4.71647H89.1801Z" fill="#1C1C1C"/>
<path d="M144.937 0L149.642 4.71647V25.2835L144.937 30H124.418L119.712 25.2475V4.71647L124.418 0H144.937ZM124.462 25.2385H144.937V4.71647H124.462V25.2475V25.2385Z" fill="#1C1C1C"/>
<path d="M154.985 4.71647V0H184.916V4.71647H172.299V30H167.593V4.71647H154.985Z" fill="#1C1C1C"/>
<path d="M215.474 0L220.18 4.71647V25.2835L215.474 30H194.955L190.25 25.2475V4.71647L194.955 0H215.474ZM194.991 25.2385H215.474V4.71647H194.991V25.2475V25.2385Z" fill="#1C1C1C"/>
<path d="M230.273 25.2385H255.453V29.991H225.523V4.71647L230.265 0V25.2385H230.273Z" fill="#1C1C1C"/>
<path d="M286.021 0L290.727 4.71647V25.2835L286.021 30H265.502L260.796 25.2475V4.71647L265.502 0H286.021ZM265.538 25.2385H286.021V4.71647H265.538V25.2475V25.2385Z" fill="#1C1C1C"/>
<path d="M300.811 0V12.6463H311.632L321.294 2.9613V0H326V4.92349L316.041 14.9055L326 24.8875V29.991H321.294V26.8587L311.758 17.3447H300.811V29.991H296.07V0H300.811Z" fill="#1C1C1C"/>
</g>
<defs>
<clipPath id="clip0_4_230">
<rect width="326" height="30" fill="white"/>
</clipPath>
</defs>
</svg>
