<svg width="30" height="30" viewBox="0 0 30 30" fill="none" xmlns="http://www.w3.org/2000/svg">
<path d="M27.8308 3.03472C27.4749 2.73864 27.0454 2.54459 26.588 2.47323C26.1305 2.40187 25.6623 2.45586 25.2331 2.62946L2.83201 11.6737C2.35295 11.8708 1.94516 12.2089 1.66276 12.6432C1.38037 13.0775 1.23672 13.5874 1.2509 14.1052C1.26507 14.623 1.43639 15.1243 1.74211 15.5425C2.04784 15.9607 2.47351 16.276 2.96264 16.4466L7.49389 18.0225L10.0195 26.3746C10.0538 26.4861 10.1036 26.5923 10.1675 26.6901C10.1772 26.7051 10.1908 26.7162 10.2011 26.7308C10.2749 26.8337 10.364 26.9247 10.4654 27.0005C10.4943 27.0225 10.5219 27.0431 10.5527 27.0626C10.6714 27.1413 10.8028 27.1989 10.9411 27.2327L10.9559 27.234L10.9643 27.2376C11.0475 27.2545 11.1321 27.2631 11.217 27.2632C11.2252 27.2632 11.2324 27.2593 11.2405 27.2592C11.3686 27.2569 11.4955 27.2349 11.6169 27.1938C11.6451 27.1842 11.6693 27.1681 11.6967 27.1565C11.7871 27.119 11.8728 27.0709 11.952 27.0133C12.0154 26.9598 12.0788 26.9064 12.1423 26.8531L15.52 23.1238L20.5578 27.0264C21.0013 27.3717 21.5473 27.5594 22.1093 27.5599C22.6983 27.5591 23.2691 27.3559 23.7261 26.9843C24.183 26.6127 24.4983 26.0953 24.6191 25.5188L28.6975 5.49811C28.7899 5.04751 28.7581 4.58026 28.6054 4.14635C28.4528 3.71244 28.185 3.32819 27.8308 3.03472ZM11.7126 18.4205C11.5393 18.5931 11.4208 18.8131 11.3721 19.0528L10.9852 20.9328L10.0051 17.6915L15.0867 15.0453L11.7126 18.4205ZM22.0898 25.0501L16.1365 20.4383C15.8874 20.2458 15.5749 20.1542 15.2614 20.1818C14.9478 20.2094 14.6562 20.3542 14.4446 20.5872L13.3628 21.7812L13.7451 19.9231L22.5989 11.0694C22.8102 10.8583 22.9389 10.5786 22.9618 10.2808C22.9847 9.98297 22.9001 9.68684 22.7235 9.44601C22.5468 9.20517 22.2898 9.03557 21.9989 8.96791C21.708 8.90025 21.4025 8.93901 21.1377 9.07718L8.43108 15.693L3.77563 13.9893L26.2487 4.99881L22.0898 25.0501Z" fill="black"/>
</svg>
