<svg width="30" height="30" viewBox="0 0 30 30" fill="none" xmlns="http://www.w3.org/2000/svg">
<path d="M19.6796 16.9116C19.3144 16.5168 18.9044 16.166 18.4578 15.8665C20.26 14.4731 21.5229 12.4977 22.0313 10.2771C22.0688 10.1166 22.0742 9.95032 22.0472 9.78775C22.0202 9.62517 21.9613 9.46954 21.874 9.3298C21.7866 9.19007 21.6725 9.06899 21.5381 8.97353C21.4038 8.87808 21.2519 8.81013 21.0912 8.77359C20.9305 8.73706 20.7642 8.73266 20.6017 8.76066C20.4393 8.78865 20.2841 8.84848 20.1449 8.93671C20.0057 9.02494 19.8853 9.13982 19.7907 9.27475C19.6961 9.40967 19.629 9.56198 19.5935 9.7229C19.3567 10.7616 18.8963 11.7362 18.2442 12.5786C17.5921 13.4211 16.7641 14.1112 15.8179 14.6008V10.0025C15.8102 9.91052 15.7918 9.81974 15.7633 9.73196C15.755 9.65969 15.7406 9.58825 15.7201 9.51843C15.6668 9.40474 15.5965 9.29983 15.5116 9.20729C15.4893 9.18074 15.478 9.14573 15.4536 9.12116C15.362 9.03663 15.2583 8.96624 15.146 8.91234C15.1141 8.89533 15.0903 8.86656 15.0568 8.85234C14.9611 8.82043 14.8619 8.80002 14.7613 8.79153C14.6992 8.77336 14.6357 8.76032 14.5715 8.75254L13.7537 8.75H13.75C13.4576 8.7486 13.174 8.85026 12.9491 9.03713C12.7241 9.224 12.5722 9.48413 12.52 9.77185C12.4678 10.0596 12.5186 10.3565 12.6635 10.6105C12.8084 10.8645 13.0381 11.0593 13.3124 11.1608V17.2742C11.3315 15.2179 10.0199 12.61 9.55018 9.79375C9.52276 9.63192 9.46374 9.47708 9.37649 9.33806C9.28923 9.19904 9.17545 9.07857 9.04164 8.98352C8.90782 8.88848 8.7566 8.82072 8.5966 8.78412C8.4366 8.74752 8.27095 8.74279 8.10913 8.7702C7.9473 8.79761 7.79245 8.85663 7.65343 8.94389C7.51442 9.03115 7.39394 9.14493 7.2989 9.27874C7.20385 9.41256 7.1361 9.56378 7.09949 9.72378C7.06289 9.88378 7.05816 10.0494 7.08558 10.2113C7.81606 14.5644 10.2436 18.4501 13.8355 21.0157C13.8867 21.0464 13.9401 21.0733 13.9952 21.0963C14.0385 21.1217 14.0834 21.1443 14.1296 21.164C14.2691 21.2198 14.4176 21.2498 14.5679 21.2525C14.7518 21.2502 14.9328 21.2067 15.0977 21.1252C15.1101 21.1193 15.1244 21.122 15.1367 21.1158C15.2472 21.0582 15.3484 20.9844 15.4369 20.8967C15.4546 20.8794 15.4665 20.8581 15.4833 20.8398C15.564 20.7511 15.6313 20.6513 15.6832 20.5433C15.7006 20.5074 15.7165 20.4732 15.7304 20.4355C15.7854 20.2976 15.815 20.1509 15.8179 20.0025L15.8185 17.345C16.593 17.5724 17.2908 18.0067 17.8369 18.6011L19.8969 20.8472C20.0077 20.9686 20.1413 21.0669 20.2902 21.1365C20.4391 21.2062 20.6002 21.2458 20.7644 21.2531C20.9286 21.2603 21.0926 21.2352 21.2471 21.179C21.4015 21.1228 21.5434 21.0367 21.6645 20.9256C21.7856 20.8145 21.8837 20.6806 21.953 20.5316C22.0223 20.3825 22.0615 20.2213 22.0684 20.0571C22.0753 19.8929 22.0498 19.7289 21.9932 19.5746C21.9367 19.4203 21.8503 19.2786 21.7389 19.1577L19.6796 16.9116ZM18.8409 1.25H11.1719C3.47534 1.25 1.25 3.4729 1.25 11.1585V18.8281C1.25 26.5247 3.47229 28.75 11.1591 28.75H18.8281C26.5247 28.75 28.75 26.5271 28.75 18.8416V11.1719C28.75 3.47534 26.5277 1.25 18.8409 1.25ZM26.25 18.8416C26.25 25.1416 25.1404 26.25 18.8281 26.25H11.1591C4.85779 26.25 3.75 25.1404 3.75 18.8281V11.1585C3.75 4.8584 4.85963 3.75 11.1719 3.75H18.8409C25.1422 3.75 26.25 4.85963 26.25 11.1719V18.8416Z" fill="black"/>
</svg>
