<?xml version="1.0" standalone="no"?>
<!DOCTYPE svg PUBLIC "-//W3C//DTD SVG 20010904//EN"
 "http://www.w3.org/TR/2001/REC-SVG-20010904/DTD/svg10.dtd">
<svg version="1.0" xmlns="http://www.w3.org/2000/svg"
 width="64.000000pt" height="64.000000pt" viewBox="0 0 64.000000 64.000000"
 preserveAspectRatio="xMidYMid meet">

<g transform="translate(0.000000,64.000000) scale(0.100000,-0.100000)"
fill="#000000" stroke="none">
<path d="M333 627 c-3 -5 57 -72 133 -148 l139 -139 -60 -60 c-33 -33 -53 -60
-44 -60 8 0 41 28 74 63 l60 62 -148 146 c-81 80 -150 141 -154 136z"/>
<path d="M297 593 c-4 -4 47 -62 115 -130 l123 -123 -60 -60 c-33 -34 -53 -60
-44 -60 8 0 41 27 74 60 l60 60 -131 131 c-71 71 -133 126 -137 122z"/>
<path d="M256 553 c-4 -4 40 -53 96 -110 l103 -103 -60 -60 c-33 -33 -53 -60
-45 -60 17 0 130 109 130 125 0 10 -201 215 -211 215 -3 0 -9 -3 -13 -7z"/>
<path d="M65 358 l-60 -63 148 -146 c81 -80 150 -141 154 -136 3 5 -57 72
-133 148 l-139 139 60 60 c33 33 53 60 44 60 -8 0 -41 -28 -74 -62z"/>
<path d="M135 360 l-60 -60 130 -130 c71 -71 133 -126 138 -123 5 3 -46 61
-114 129 l-124 124 60 60 c33 34 53 60 44 60 -8 0 -41 -27 -74 -60z"/>
<path d="M217 362 c-31 -32 -57 -62 -57 -67 0 -20 208 -218 220 -210 8 5 -22
42 -91 111 l-104 104 60 60 c33 34 53 60 44 60 -8 0 -40 -26 -72 -58z"/>
</g>
</svg>
